<mxfile host="65bd71144e">
    <diagram id="NP5CHscymta9gD7kUfSi" name="第 1 页">
        <mxGraphModel dx="1360" dy="730" grid="1" gridSize="10" guides="1" tooltips="1" connect="1" arrows="1" fold="1" page="1" pageScale="1" pageWidth="827" pageHeight="1169" math="0" shadow="0">
            <root>
                <mxCell id="0"/>
                <mxCell id="1" parent="0"/>
                <mxCell id="2" style="edgeStyle=none;html=1;" edge="1" parent="1" source="3" target="5">
                    <mxGeometry relative="1" as="geometry">
                        <mxPoint x="190" y="702" as="targetPoint"/>
                    </mxGeometry>
                </mxCell>
                <mxCell id="3" value="开始游戏" style="rounded=1;whiteSpace=wrap;html=1;absoluteArcSize=1;arcSize=14;strokeWidth=2;" vertex="1" parent="1">
                    <mxGeometry x="140" y="547" width="100" height="100" as="geometry"/>
                </mxCell>
                <mxCell id="4" style="edgeStyle=none;html=1;" edge="1" parent="1" source="5" target="39">
                    <mxGeometry relative="1" as="geometry">
                        <mxPoint x="190" y="824" as="targetPoint"/>
                    </mxGeometry>
                </mxCell>
                <mxCell id="5" value="清空得分&lt;br&gt;获取系统时间，设为开始时间" style="rounded=1;whiteSpace=wrap;html=1;absoluteArcSize=1;arcSize=14;strokeWidth=2;" vertex="1" parent="1">
                    <mxGeometry x="70" y="692" width="240" height="100" as="geometry"/>
                </mxCell>
                <mxCell id="6" style="edgeStyle=none;html=1;" edge="1" parent="1" source="8" target="10">
                    <mxGeometry relative="1" as="geometry">
                        <mxPoint x="190" y="1234" as="targetPoint"/>
                    </mxGeometry>
                </mxCell>
                <mxCell id="7" style="edgeStyle=none;html=1;" edge="1" parent="1" source="8" target="15">
                    <mxGeometry relative="1" as="geometry">
                        <mxPoint x="380" y="1089" as="targetPoint"/>
                    </mxGeometry>
                </mxCell>
                <mxCell id="8" value="该字符是否为字符串对应字符" style="strokeWidth=2;html=1;shape=mxgraph.flowchart.decision;whiteSpace=wrap;" vertex="1" parent="1">
                    <mxGeometry x="95" y="1004" width="190" height="170" as="geometry"/>
                </mxCell>
                <mxCell id="9" style="edgeStyle=none;html=1;" edge="1" parent="1" source="10" target="31">
                    <mxGeometry relative="1" as="geometry">
                        <mxPoint x="190" y="1374" as="targetPoint"/>
                    </mxGeometry>
                </mxCell>
                <mxCell id="10" value="输出黑底绿字" style="rounded=1;whiteSpace=wrap;html=1;absoluteArcSize=1;arcSize=14;strokeWidth=2;" vertex="1" parent="1">
                    <mxGeometry x="140" y="1214" width="100" height="100" as="geometry"/>
                </mxCell>
                <mxCell id="11" value="是" style="text;html=1;align=center;verticalAlign=middle;resizable=0;points=[];autosize=1;strokeColor=none;fillColor=none;" vertex="1" parent="1">
                    <mxGeometry x="180" y="1169" width="40" height="30" as="geometry"/>
                </mxCell>
                <mxCell id="12" value="否" style="text;html=1;align=center;verticalAlign=middle;resizable=0;points=[];autosize=1;strokeColor=none;fillColor=none;" vertex="1" parent="1">
                    <mxGeometry x="310" y="1049" width="40" height="30" as="geometry"/>
                </mxCell>
                <mxCell id="13" style="edgeStyle=none;html=1;" edge="1" parent="1" source="15" target="17">
                    <mxGeometry relative="1" as="geometry">
                        <mxPoint x="500" y="1089" as="targetPoint"/>
                    </mxGeometry>
                </mxCell>
                <mxCell id="14" style="edgeStyle=none;html=1;" edge="1" parent="1" source="15" target="24">
                    <mxGeometry relative="1" as="geometry">
                        <mxPoint x="400" y="1214" as="targetPoint"/>
                    </mxGeometry>
                </mxCell>
                <mxCell id="15" value="是否为esc键" style="strokeWidth=2;html=1;shape=mxgraph.flowchart.decision;whiteSpace=wrap;" vertex="1" parent="1">
                    <mxGeometry x="350" y="1039" width="100" height="100" as="geometry"/>
                </mxCell>
                <mxCell id="16" style="edgeStyle=none;html=1;" edge="1" parent="1" source="17" target="22">
                    <mxGeometry relative="1" as="geometry">
                        <mxPoint x="560" y="1174" as="targetPoint"/>
                    </mxGeometry>
                </mxCell>
                <mxCell id="17" value="输出是否退出的语句" style="rounded=1;whiteSpace=wrap;html=1;absoluteArcSize=1;arcSize=14;strokeWidth=2;" vertex="1" parent="1">
                    <mxGeometry x="510" y="1039" width="100" height="100" as="geometry"/>
                </mxCell>
                <mxCell id="18" value="是" style="text;html=1;align=center;verticalAlign=middle;resizable=0;points=[];autosize=1;strokeColor=none;fillColor=none;" vertex="1" parent="1">
                    <mxGeometry x="450" y="1059" width="40" height="30" as="geometry"/>
                </mxCell>
                <mxCell id="19" style="edgeStyle=none;html=1;" edge="1" parent="1" source="22" target="26">
                    <mxGeometry relative="1" as="geometry">
                        <mxPoint x="750" y="1214" as="targetPoint"/>
                    </mxGeometry>
                </mxCell>
                <mxCell id="20" style="edgeStyle=none;html=1;" edge="1" parent="1" source="22" target="29">
                    <mxGeometry relative="1" as="geometry">
                        <mxPoint x="750" y="964" as="targetPoint"/>
                    </mxGeometry>
                </mxCell>
                <mxCell id="22" value="输入是否为1" style="strokeWidth=2;html=1;shape=mxgraph.flowchart.decision;whiteSpace=wrap;" vertex="1" parent="1">
                    <mxGeometry x="700" y="1039" width="100" height="100" as="geometry"/>
                </mxCell>
                <mxCell id="23" value="否" style="text;html=1;align=center;verticalAlign=middle;resizable=0;points=[];autosize=1;strokeColor=none;fillColor=none;" vertex="1" parent="1">
                    <mxGeometry x="390" y="1149" width="40" height="30" as="geometry"/>
                </mxCell>
                <mxCell id="54" style="edgeStyle=none;html=1;" edge="1" parent="1" source="24">
                    <mxGeometry relative="1" as="geometry">
                        <mxPoint x="190" y="1340" as="targetPoint"/>
                        <Array as="points">
                            <mxPoint x="400" y="1340"/>
                        </Array>
                    </mxGeometry>
                </mxCell>
                <mxCell id="24" value="输出黑底红字" style="rounded=1;whiteSpace=wrap;html=1;absoluteArcSize=1;arcSize=14;strokeWidth=2;" vertex="1" parent="1">
                    <mxGeometry x="350" y="1214" width="100" height="100" as="geometry"/>
                </mxCell>
                <mxCell id="25" value="是" style="text;html=1;align=center;verticalAlign=middle;resizable=0;points=[];autosize=1;strokeColor=none;fillColor=none;" vertex="1" parent="1">
                    <mxGeometry x="750" y="1169" width="40" height="30" as="geometry"/>
                </mxCell>
                <mxCell id="51" style="edgeStyle=none;html=1;" edge="1" parent="1" source="26" target="53">
                    <mxGeometry relative="1" as="geometry">
                        <mxPoint x="750" y="1390" as="targetPoint"/>
                    </mxGeometry>
                </mxCell>
                <mxCell id="26" value="获取系统时间" style="rounded=1;whiteSpace=wrap;html=1;absoluteArcSize=1;arcSize=14;strokeWidth=2;" vertex="1" parent="1">
                    <mxGeometry x="700" y="1214" width="100" height="100" as="geometry"/>
                </mxCell>
                <mxCell id="27" style="edgeStyle=none;html=1;startArrow=none;" edge="1" parent="1" source="41">
                    <mxGeometry relative="1" as="geometry">
                        <mxPoint x="190" y="964" as="targetPoint"/>
                    </mxGeometry>
                </mxCell>
                <mxCell id="28" style="edgeStyle=none;html=1;" edge="1" parent="1" source="29">
                    <mxGeometry relative="1" as="geometry">
                        <mxPoint x="190" y="904" as="targetPoint"/>
                    </mxGeometry>
                </mxCell>
                <mxCell id="29" value="光标回到原本的位置" style="rounded=1;whiteSpace=wrap;html=1;absoluteArcSize=1;arcSize=14;strokeWidth=2;" vertex="1" parent="1">
                    <mxGeometry x="700" y="854" width="100" height="100" as="geometry"/>
                </mxCell>
                <mxCell id="30" style="edgeStyle=none;html=1;" edge="1" parent="1" source="31" target="34">
                    <mxGeometry relative="1" as="geometry">
                        <mxPoint x="190" y="1514" as="targetPoint"/>
                    </mxGeometry>
                </mxCell>
                <mxCell id="31" value="获取字符串下一个字符" style="rounded=1;whiteSpace=wrap;html=1;absoluteArcSize=1;arcSize=14;strokeWidth=2;" vertex="1" parent="1">
                    <mxGeometry x="140" y="1364" width="100" height="100" as="geometry"/>
                </mxCell>
                <mxCell id="32" style="edgeStyle=none;html=1;" edge="1" parent="1" source="34" target="37">
                    <mxGeometry relative="1" as="geometry">
                        <mxPoint x="190" y="1674" as="targetPoint"/>
                    </mxGeometry>
                </mxCell>
                <mxCell id="55" style="edgeStyle=none;html=1;" edge="1" parent="1" source="34" target="56">
                    <mxGeometry relative="1" as="geometry">
                        <mxPoint x="190" y="1690" as="targetPoint"/>
                    </mxGeometry>
                </mxCell>
                <mxCell id="34" value="该字符是否为字符串结束符 $" style="strokeWidth=2;html=1;shape=mxgraph.flowchart.decision;whiteSpace=wrap;" vertex="1" parent="1">
                    <mxGeometry x="130" y="1494" width="120" height="160" as="geometry"/>
                </mxCell>
                <mxCell id="35" value="是" style="text;html=1;align=center;verticalAlign=middle;resizable=0;points=[];autosize=1;strokeColor=none;fillColor=none;" vertex="1" parent="1">
                    <mxGeometry x="90" y="1534" width="40" height="30" as="geometry"/>
                </mxCell>
                <mxCell id="59" style="edgeStyle=none;html=1;entryX=0.5;entryY=0;entryDx=0;entryDy=0;entryPerimeter=0;" edge="1" parent="1" source="37" target="45">
                    <mxGeometry relative="1" as="geometry"/>
                </mxCell>
                <mxCell id="37" value="上滚一行，光标归位，获取下一个字符" style="rounded=1;whiteSpace=wrap;html=1;absoluteArcSize=1;arcSize=14;strokeWidth=2;" vertex="1" parent="1">
                    <mxGeometry x="-40" y="1524" width="100" height="100" as="geometry"/>
                </mxCell>
                <mxCell id="38" style="edgeStyle=none;html=1;" edge="1" parent="1" source="39" target="41">
                    <mxGeometry relative="1" as="geometry">
                        <mxPoint x="195" y="924" as="targetPoint"/>
                    </mxGeometry>
                </mxCell>
                <mxCell id="39" value="输出语句" style="rounded=1;whiteSpace=wrap;html=1;absoluteArcSize=1;arcSize=14;strokeWidth=2;" vertex="1" parent="1">
                    <mxGeometry x="70" y="824" width="250" height="70" as="geometry"/>
                </mxCell>
                <mxCell id="40" value="" style="edgeStyle=none;html=1;" edge="1" parent="1" source="41" target="8">
                    <mxGeometry relative="1" as="geometry"/>
                </mxCell>
                <mxCell id="41" value="&#10;&lt;span style=&quot;color: rgb(240, 240, 240); font-family: Helvetica; font-size: 12px; font-style: normal; font-variant-ligatures: normal; font-variant-caps: normal; font-weight: 400; letter-spacing: normal; orphans: 2; text-align: center; text-indent: 0px; text-transform: none; widows: 2; word-spacing: 0px; -webkit-text-stroke-width: 0px; background-color: rgb(42, 37, 47); text-decoration-thickness: initial; text-decoration-style: initial; text-decoration-color: initial; float: none; display: inline !important;&quot;&gt;从键盘缓冲区获取一个字符&lt;/span&gt;&#10;&#10;" style="rounded=1;whiteSpace=wrap;html=1;absoluteArcSize=1;arcSize=14;strokeWidth=2;" vertex="1" parent="1">
                    <mxGeometry x="107.5" y="924" width="175" height="60" as="geometry"/>
                </mxCell>
                <mxCell id="42" value="否" style="text;html=1;align=center;verticalAlign=middle;resizable=0;points=[];autosize=1;strokeColor=none;fillColor=none;" vertex="1" parent="1">
                    <mxGeometry x="200" y="1640" width="40" height="30" as="geometry"/>
                </mxCell>
                <mxCell id="60" style="edgeStyle=none;html=1;entryX=0.5;entryY=0;entryDx=0;entryDy=0;" edge="1" parent="1" source="45" target="47">
                    <mxGeometry relative="1" as="geometry"/>
                </mxCell>
                <mxCell id="64" style="edgeStyle=none;html=1;exitX=0;exitY=0.5;exitDx=0;exitDy=0;exitPerimeter=0;" edge="1" parent="1" source="45">
                    <mxGeometry relative="1" as="geometry">
                        <mxPoint x="190" y="800" as="targetPoint"/>
                        <Array as="points">
                            <mxPoint x="-200" y="1754"/>
                            <mxPoint x="-200" y="790"/>
                        </Array>
                    </mxGeometry>
                </mxCell>
                <mxCell id="45" value="该字符是否为全文结束符 #" style="strokeWidth=2;html=1;shape=mxgraph.flowchart.decision;whiteSpace=wrap;" vertex="1" parent="1">
                    <mxGeometry x="-50" y="1673.5" width="120" height="160" as="geometry"/>
                </mxCell>
                <mxCell id="62" style="edgeStyle=none;html=1;" edge="1" parent="1" source="47" target="63">
                    <mxGeometry relative="1" as="geometry">
                        <mxPoint x="10" y="2050" as="targetPoint"/>
                    </mxGeometry>
                </mxCell>
                <mxCell id="47" value="输出祝贺语句&lt;br&gt;输出用时和得分" style="rounded=1;whiteSpace=wrap;html=1;absoluteArcSize=1;arcSize=14;strokeWidth=2;" vertex="1" parent="1">
                    <mxGeometry x="-40" y="1890" width="100" height="100" as="geometry"/>
                </mxCell>
                <mxCell id="49" style="edgeStyle=none;html=1;entryX=0.5;entryY=0;entryDx=0;entryDy=0;" edge="1" parent="1" source="50" target="3">
                    <mxGeometry relative="1" as="geometry"/>
                </mxCell>
                <mxCell id="50" value="1" style="strokeWidth=2;html=1;shape=mxgraph.flowchart.start_2;whiteSpace=wrap;" vertex="1" parent="1">
                    <mxGeometry x="140" y="399" width="100" height="100" as="geometry"/>
                </mxCell>
                <mxCell id="53" value="4" style="strokeWidth=2;html=1;shape=mxgraph.flowchart.start_2;whiteSpace=wrap;" vertex="1" parent="1">
                    <mxGeometry x="700" y="1380" width="100" height="100" as="geometry"/>
                </mxCell>
                <mxCell id="56" value="光标移动到下一位位置" style="rounded=1;whiteSpace=wrap;html=1;absoluteArcSize=1;arcSize=14;strokeWidth=2;" vertex="1" parent="1">
                    <mxGeometry x="140" y="1684" width="100" height="116" as="geometry"/>
                </mxCell>
                <mxCell id="61" value="是" style="text;html=1;align=center;verticalAlign=middle;resizable=0;points=[];autosize=1;strokeColor=none;fillColor=none;" vertex="1" parent="1">
                    <mxGeometry x="10" y="1835" width="40" height="30" as="geometry"/>
                </mxCell>
                <mxCell id="63" value="4" style="strokeWidth=2;html=1;shape=mxgraph.flowchart.start_2;whiteSpace=wrap;" vertex="1" parent="1">
                    <mxGeometry x="-40" y="2030" width="100" height="100" as="geometry"/>
                </mxCell>
                <mxCell id="65" value="否" style="text;html=1;align=center;verticalAlign=middle;resizable=0;points=[];autosize=1;strokeColor=none;fillColor=none;" vertex="1" parent="1">
                    <mxGeometry x="-120" y="1715" width="40" height="30" as="geometry"/>
                </mxCell>
                <mxCell id="66" value="否" style="text;html=1;align=center;verticalAlign=middle;resizable=0;points=[];autosize=1;strokeColor=none;fillColor=none;" vertex="1" parent="1">
                    <mxGeometry x="740" y="1005" width="40" height="30" as="geometry"/>
                </mxCell>
            </root>
        </mxGraphModel>
    </diagram>
</mxfile>